<svg xmlns="http://www.w3.org/2000/svg" xmlns:xlink="http://www.w3.org/1999/xlink" version="1.1" x="0px" y="0px" viewBox="0 0 100 125" enable-background="new 0 0 100 100" xml:space="preserve"><path d="M64.66,55.94c0,0.754-0.561,1.365-1.252,1.365H30.304c-0.691,0-1.252-0.611-1.252-1.365l0,0  c0-0.754,0.561-1.365,1.252-1.365h33.104C64.1,54.575,64.66,55.187,64.66,55.94L64.66,55.94z"/><g><path d="M47.134,59.414H31.314c0,0-1.985,0-1.985,1.737s1.156,5.36,2.233,7.568c2.027,4.155,6.234,7.211,9.062,12.03   c2.919,4.974,0.777,9.75,0.777,9.75s-2.024,2.042-1.899,3.654h7.631"/><path d="M46.579,59.414h15.819c0,0,1.984,0,1.984,1.737s-1.155,5.36-2.232,7.568c-2.027,4.155-6.072,7.461-8.9,12.28   c-2.92,4.974-0.939,9.5-0.939,9.5s2.023,2.042,1.899,3.654h-7.631"/></g><path d="M63.957,63.738c0,0,2.526-9.163-0.549-9.163l-1.158,0.758l-0.583,1.973c0,0,1.083,0.195,1.083,0.861  s-0.417,1.247-1.417,1.247"/><path d="M46.717,9c-9.755,0-17.665,9.775-17.665,21.833c0,12.058,7.91,21.833,17.665,21.833c9.757,0,17.666-9.775,17.666-21.833  C64.383,18.775,56.475,9,46.717,9z M46.718,45c-6.49,0-11.75-6.343-11.75-14.166c0-7.824,5.26-14.167,11.75-14.167  c6.489,0,11.75,6.343,11.75,14.167C58.468,38.657,53.207,45,46.718,45z"/><path d="M46.579,52.167h-3.63c0,0,0.55,2.066-1.533,2.408s5.163,0.967,5.163,0.967"/><path d="M46.371,52.167h3.766c0,0-0.57,2.066,1.591,2.408c2.161,0.342-5.357,0.967-5.357,0.967"/><text style="display: none;" x="0" y="115" fill="#000000" font-size="5px" font-weight="bold" font-family="'Helvetica Neue', Helvetica, Arial-Unicode, Arial, Sans-serif">Created by Ayesha Rana</text><text style="display: none;" x="0" y="120" fill="#000000" font-size="5px" font-weight="bold" font-family="'Helvetica Neue', Helvetica, Arial-Unicode, Arial, Sans-serif">from the Noun Project</text></svg>
