<svg xmlns="http://www.w3.org/2000/svg" xmlns:xlink="http://www.w3.org/1999/xlink" version="1.1" x="0px" y="0px" viewBox="0 0 100 125" enable-background="new 0 0 100 100" xml:space="preserve"><path d="M64.66,54.94c0,0.754-0.561,1.365-1.252,1.365H30.304c-0.691,0-1.252-0.611-1.252-1.365l0,0  c0-0.754,0.561-1.365,1.252-1.365h33.104C64.1,53.575,64.66,54.187,64.66,54.94L64.66,54.94z"/><g><path d="M47.134,57.414H31.314c0,0-1.985,0-1.985,1.737s1.156,5.36,2.233,7.568c2.027,4.155,6.234,7.211,9.062,12.03   c2.919,4.974,0.777,9.75,0.777,9.75s-2.024,2.042-1.899,3.654h7.631"/><path d="M46.579,57.414h15.819c0,0,1.984,0,1.984,1.737s-1.155,5.36-2.232,7.568c-2.027,4.155-6.072,7.461-8.9,12.28   c-2.92,4.974-0.939,9.5-0.939,9.5s2.023,2.042,1.899,3.654h-7.631"/></g><ellipse cx="46.718" cy="30.833" rx="17.665" ry="21.833"/><text x="0" y="115" fill="#000000" font-size="5px" font-weight="bold" font-family="'Helvetica Neue', Helvetica, Arial-Unicode, Arial, Sans-serif" style="display: none;">Created by Ayesha Rana</text><text x="0" y="120" fill="#000000" font-size="5px" font-weight="bold" font-family="'Helvetica Neue', Helvetica, Arial-Unicode, Arial, Sans-serif" style="display: none;">from the Noun Project</text></svg>
